<svg width="24" height="24" xmlns="http://www.w3.org/2000/svg" fill-rule="evenodd" clip-rule="evenodd"><path d="M4.323 9.699c-.127-.144-.235-.295-.323-.454v-3.021l-3-1.537 10.956-4.687 10.044 5.502h-.001.001v3.498l1 2h-3l1-2v-3.097l-2 .802v2.49c-.08.163-.188.318-.318.466.347.95.398 2.083.404 2.635 1.36-.482 2.645.822 2.364 3.108-.203 1.66-1.147 2.94-2.526 3.431-2.417 4.773-6.285 5.144-7.415 5.144-1.129 0-4.998-.372-7.414-5.144-1.38-.491-2.324-1.771-2.527-3.431-.296-2.433 1.141-3.583 2.364-3.104.007-.551.057-1.66.391-2.601zm13.53.639c-1.668 1.039-4.56 1.557-6.5 1.557-2.112 0-4.655-.498-6.202-1.5-.156.619-.24 1.293-.24 2.024 0 .528-.425.917-.898.917-.121 0-.244-.025-.365-.08-.061-.028-.153-.05-.257-.05-.112 0-.236.026-.345.099-.899.594-.805 3.834 1.395 4.594.22.076.405.238.511.45 2.162 4.296 5.565 4.63 6.557 4.63s4.396-.334 6.557-4.63c.107-.212.291-.374.511-.45 2.199-.76 2.294-4 1.396-4.594-.367-.245-.636.031-.968.031-.472 0-.898-.387-.898-.917 0-.753-.088-1.447-.254-2.081zm.147-1.418c-.82 1.107-4.19 1.975-6.647 1.975-2.762 0-5.512-.857-6.353-1.946v-2.214l6.114 3.133 6.886-2.761v1.813zm-6.097-7.81l7.76 4.251-8.499 3.41-7.812-4.002 8.551-3.659z"/></svg>