<svg width="24" height="24" xmlns="http://www.w3.org/2000/svg" fill-rule="evenodd" clip-rule="evenodd"><path d="M22.819 11.51c-1.16-1.632-3.001-3.002-5.014-3.826-1.548 1.815-2.639 5.324-.159 8.423 2.178-1.091 4.091-2.908 5.173-4.597zm-6.105 5.001c-2.565-3.434-1.455-7.185.093-9.183-.896-.275-1.356-.341-1.779-.402-1.868-2.159-4.438-1.964-5.047-1.944.157.295.445.754.633 2.241-2.881.806-3.873 1.766-5.98 3.573-.393-.43-1.378-1.54-3.024-1.968.627 1.763.688 3.763.079 5.37 1.727-.379 2.817-1.84 2.974-2.014 2.201 2.282 3.161 3.4 5.952 4.415.051.995-.503 2.126-.634 2.374.685.022 3.213.204 5.072-1.975.513-.1.931-.203 1.661-.487zm7.286-5.028c-2.387 4.033-6.093 5.927-8.417 6.428-1.233 1.371-3.017 2.066-5.306 2.066-.715 0-1.234-.06-2.101-.141.632-.594 1.172-1.573 1.362-2.573-2.249-.915-3.692-2.408-4.863-3.629-2.031 1.953-4.087 1.655-4.675 1.655.361-.627 2.199-3.713 0-7.592.552.009 2.661-.159 4.702 1.726 1.207-1.04 2.571-2.204 4.798-2.917-.229-1.005-.631-1.692-1.325-2.387.72-.067 1.433-.119 2.13-.119 1.948 0 3.768.404 5.228 1.99 4.479.719 7.218 3.587 8.467 5.493zm-3.032-.505c0 .552-.448 1-1 1-.551 0-1-.448-1-1 0-.551.449-1 1-1 .552 0 1 .449 1 1z"/></svg>